<mxfile host="app.diagrams.net" modified="2023-07-13T02:52:43.321Z" agent="Mozilla/5.0 (Windows NT 10.0; Win64; x64) AppleWebKit/537.36 (KHTML, like Gecko) Chrome/114.0.0.0 Safari/537.36" etag="MRm9WtsMuGd5gsnIP9bJ" version="21.5.1" type="github">
  <diagram name="Page-1" id="E3P6UttAtXb4cR_izz79">
    <mxGraphModel dx="989" dy="536" grid="1" gridSize="10" guides="1" tooltips="1" connect="1" arrows="1" fold="1" page="1" pageScale="1" pageWidth="1000" pageHeight="700" math="0" shadow="0">
      <root>
        <mxCell id="0" />
        <mxCell id="1" parent="0" />
        <mxCell id="k1Rg5g3YBnFQ-9l-ruwQ-21" style="edgeStyle=orthogonalEdgeStyle;rounded=0;orthogonalLoop=1;jettySize=auto;html=1;entryX=0.504;entryY=1.01;entryDx=0;entryDy=0;entryPerimeter=0;" edge="1" parent="1" source="k1Rg5g3YBnFQ-9l-ruwQ-2" target="k1Rg5g3YBnFQ-9l-ruwQ-3">
          <mxGeometry relative="1" as="geometry" />
        </mxCell>
        <mxCell id="k1Rg5g3YBnFQ-9l-ruwQ-2" value="Dispositivo Android" style="verticalAlign=top;align=left;spacingTop=8;spacingLeft=2;spacingRight=12;shape=cube;size=10;direction=south;fontStyle=4;html=1;whiteSpace=wrap;" vertex="1" parent="1">
          <mxGeometry x="150" y="150" width="220" height="200" as="geometry" />
        </mxCell>
        <mxCell id="k1Rg5g3YBnFQ-9l-ruwQ-3" value="Servidor" style="verticalAlign=top;align=left;spacingTop=8;spacingLeft=2;spacingRight=12;shape=cube;size=10;direction=south;fontStyle=4;html=1;whiteSpace=wrap;" vertex="1" parent="1">
          <mxGeometry x="490" y="150" width="180" height="200" as="geometry" />
        </mxCell>
        <mxCell id="k1Rg5g3YBnFQ-9l-ruwQ-22" style="edgeStyle=orthogonalEdgeStyle;rounded=0;orthogonalLoop=1;jettySize=auto;html=1;" edge="1" parent="1" source="k1Rg5g3YBnFQ-9l-ruwQ-5" target="k1Rg5g3YBnFQ-9l-ruwQ-3">
          <mxGeometry relative="1" as="geometry" />
        </mxCell>
        <mxCell id="k1Rg5g3YBnFQ-9l-ruwQ-5" value="Sensores Puerta (ESP32)" style="verticalAlign=top;align=left;spacingTop=8;spacingLeft=2;spacingRight=12;shape=cube;size=10;direction=south;fontStyle=4;html=1;whiteSpace=wrap;" vertex="1" parent="1">
          <mxGeometry x="330" y="430" width="230" height="250" as="geometry" />
        </mxCell>
        <mxCell id="k1Rg5g3YBnFQ-9l-ruwQ-7" value="App GateGuard" style="rounded=1;whiteSpace=wrap;html=1;absoluteArcSize=1;arcSize=14;strokeWidth=1;" vertex="1" parent="1">
          <mxGeometry x="170" y="200" width="110" height="110" as="geometry" />
        </mxCell>
        <mxCell id="k1Rg5g3YBnFQ-9l-ruwQ-8" value="" style="rounded=1;whiteSpace=wrap;html=1;absoluteArcSize=1;arcSize=14;strokeWidth=1;" vertex="1" parent="1">
          <mxGeometry x="150" y="220" width="40" height="15" as="geometry" />
        </mxCell>
        <mxCell id="k1Rg5g3YBnFQ-9l-ruwQ-9" value="" style="rounded=1;whiteSpace=wrap;html=1;absoluteArcSize=1;arcSize=14;strokeWidth=1;" vertex="1" parent="1">
          <mxGeometry x="150" y="270" width="40" height="15" as="geometry" />
        </mxCell>
        <mxCell id="k1Rg5g3YBnFQ-9l-ruwQ-24" style="edgeStyle=orthogonalEdgeStyle;rounded=0;orthogonalLoop=1;jettySize=auto;html=1;entryX=0.449;entryY=1.014;entryDx=0;entryDy=0;entryPerimeter=0;" edge="1" parent="1" source="k1Rg5g3YBnFQ-9l-ruwQ-10" target="k1Rg5g3YBnFQ-9l-ruwQ-2">
          <mxGeometry relative="1" as="geometry" />
        </mxCell>
        <mxCell id="k1Rg5g3YBnFQ-9l-ruwQ-10" value="Usuario" style="shape=umlActor;verticalLabelPosition=bottom;verticalAlign=top;html=1;outlineConnect=0;" vertex="1" parent="1">
          <mxGeometry x="70" y="210" width="30" height="60" as="geometry" />
        </mxCell>
        <mxCell id="k1Rg5g3YBnFQ-9l-ruwQ-13" value="Firebase -AutenticaciÃ³n por Google" style="rounded=1;whiteSpace=wrap;html=1;absoluteArcSize=1;arcSize=14;strokeWidth=1;" vertex="1" parent="1">
          <mxGeometry x="520" y="195" width="110" height="110" as="geometry" />
        </mxCell>
        <mxCell id="k1Rg5g3YBnFQ-9l-ruwQ-14" value="" style="rounded=1;whiteSpace=wrap;html=1;absoluteArcSize=1;arcSize=14;strokeWidth=1;" vertex="1" parent="1">
          <mxGeometry x="500" y="215" width="40" height="15" as="geometry" />
        </mxCell>
        <mxCell id="k1Rg5g3YBnFQ-9l-ruwQ-15" value="" style="rounded=1;whiteSpace=wrap;html=1;absoluteArcSize=1;arcSize=14;strokeWidth=1;" vertex="1" parent="1">
          <mxGeometry x="500" y="265" width="40" height="15" as="geometry" />
        </mxCell>
        <mxCell id="k1Rg5g3YBnFQ-9l-ruwQ-16" value="Scripts abrir/cerrar puertas" style="rounded=1;whiteSpace=wrap;html=1;absoluteArcSize=1;arcSize=14;strokeWidth=1;" vertex="1" parent="1">
          <mxGeometry x="390" y="520" width="110" height="110" as="geometry" />
        </mxCell>
        <mxCell id="k1Rg5g3YBnFQ-9l-ruwQ-17" value="" style="rounded=1;whiteSpace=wrap;html=1;absoluteArcSize=1;arcSize=14;strokeWidth=1;" vertex="1" parent="1">
          <mxGeometry x="370" y="540" width="40" height="15" as="geometry" />
        </mxCell>
        <mxCell id="k1Rg5g3YBnFQ-9l-ruwQ-18" value="" style="rounded=1;whiteSpace=wrap;html=1;absoluteArcSize=1;arcSize=14;strokeWidth=1;" vertex="1" parent="1">
          <mxGeometry x="370" y="590" width="40" height="15" as="geometry" />
        </mxCell>
        <mxCell id="k1Rg5g3YBnFQ-9l-ruwQ-25" value="http" style="text;html=1;strokeColor=none;fillColor=none;align=center;verticalAlign=middle;whiteSpace=wrap;rounded=0;" vertex="1" parent="1">
          <mxGeometry x="390" y="220" width="60" height="30" as="geometry" />
        </mxCell>
        <mxCell id="k1Rg5g3YBnFQ-9l-ruwQ-26" value="WiFi" style="text;html=1;strokeColor=none;fillColor=none;align=center;verticalAlign=middle;whiteSpace=wrap;rounded=0;" vertex="1" parent="1">
          <mxGeometry x="470" y="360" width="60" height="30" as="geometry" />
        </mxCell>
      </root>
    </mxGraphModel>
  </diagram>
</mxfile>
